<?xml version="1.0" encoding="UTF-8"?>
<svg width="17px" height="16px" viewBox="0 0 17 16" version="1.1" xmlns="http://www.w3.org/2000/svg" xmlns:xlink="http://www.w3.org/1999/xlink">
    <!-- Generator: Sketch 46.2 (44496) - http://www.bohemiancoding.com/sketch -->
    <title>Clear filters</title>
    <desc>Created with Sketch.</desc>
    <defs></defs>
    <g id="3.0---Player-listing" stroke="none" stroke-width="1" fill="none" fill-rule="evenodd">
        <g id="3.0.2.5---Import-player-(player-listing-after-import)" transform="translate(-973.000000, -189.000000)" fill-rule="nonzero" fill="#43494C">
            <g id="Group-13" transform="translate(973.000000, 187.000000)">
                <g id="Group-12">
                    <path d="M9.7637494,16.408417 L11.9368723,14.242946 L9.7637494,12.0774749 L10.842659,10.9985653 L13.0081301,13.1487327 L15.1736011,10.9985653 L16.2525108,12.0774749 L14.1023434,14.242946 L16.2525108,16.408417 L15.1736011,17.4873266 L13.0081301,15.3142037 L10.842659,17.4873266 L9.7637494,16.408417 L9.7637494,16.408417 Z M0,2 L13.7733142,2 L13.7733142,2 L13.7733142,2 L13.7733142,3.53036824 L13.7120995,3.53036824 L8.41702535,8.82544237 L8.41702535,18 L5.35628886,14.9392635 L5.35628886,8.81779053 L0.068866571,3.53036824 L0,3.53036824 L0,2 Z" id="Clear-filters"></path>
                </g>
            </g>
        </g>
    </g>
</svg>